<svg xmlns="http://www.w3.org/2000/svg" xmlns:xlink="http://www.w3.org/1999/xlink" width="512" zoomAndPan="magnify" viewBox="0 0 384 383.999986" height="512" preserveAspectRatio="xMidYMid meet" version="1.0"><defs><clipPath id="aeac507d04"><path d="M 164.183594 66.113281 L 376.433594 66.113281 L 376.433594 318.113281 L 164.183594 318.113281 Z M 164.183594 66.113281 " clip-rule="nonzero"/></clipPath><clipPath id="dc45ccd8c1"><path d="M 7.371094 66.113281 L 164.121094 66.113281 L 164.121094 318.113281 L 7.371094 318.113281 Z M 7.371094 66.113281 " clip-rule="nonzero"/></clipPath><clipPath id="f481586858"><path d="M 164.125 65.875 L 218.316406 65.875 L 218.316406 318.113281 L 164.125 318.113281 Z M 164.125 65.875 " clip-rule="nonzero"/></clipPath><clipPath id="caf5d29892"><path d="M 320.960938 107.160156 L 350 107.160156 L 350 129 L 320.960938 129 Z M 320.960938 107.160156 " clip-rule="nonzero"/></clipPath></defs><g clip-path="url(#aeac507d04)"><path fill="#6c1cb2" d="M 376.367188 65.882812 L 320.875 65.882812 L 320.875 150.261719 L 376.367188 128.179688 Z M 269.703125 242.828125 L 163.046875 200.394531 L 163.046875 149.664062 L 163.042969 149.664062 L 163.042969 65.882812 L 218.535156 65.882812 L 218.535156 164.648438 L 269.703125 185 L 376.355469 142.582031 L 376.355469 180.703125 L 376.363281 180.6875 L 376.363281 318.117188 L 320.875 318.117188 L 320.875 222.476562 Z M 163.042969 214.777344 L 163.042969 318.117188 L 218.535156 318.117188 L 218.535156 236.859375 Z M 163.042969 214.777344 " fill-opacity="1" fill-rule="nonzero"/></g><g clip-path="url(#dc45ccd8c1)"><path fill="#6c1cb2" d="M 164.121094 65.878906 L -88.113281 65.878906 L -88.113281 318.113281 L 164.121094 318.113281 L 164.121094 218.453125 L 78.066406 304.5625 L 25.101562 304.5625 L 137.640625 191.96875 L 25.101562 79.433594 L 78.066406 79.433594 L 164.121094 165.488281 Z M 164.121094 65.878906 " fill-opacity="1" fill-rule="evenodd"/></g><g clip-path="url(#f481586858)"><path fill="#6c1cb2" d="M 164.125 318.113281 L 164.125 65.78125 L 218.316406 65.78125 L 218.316406 318.113281 Z M 164.125 318.113281 " fill-opacity="1" fill-rule="nonzero"/></g><g clip-path="url(#caf5d29892)"><path fill="#ffffff" d="M 341.128906 118.40625 C 338.964844 116.480469 338.109375 113.625 338.808594 110.5625 C 338.84375 111.632812 339.121094 114.835938 342.246094 117.546875 C 342.335938 117.476562 342.421875 117.40625 342.507812 117.335938 C 342.441406 117.40625 342.367188 117.484375 342.28125 117.574219 C 342.308594 117.597656 342.339844 117.625 342.367188 117.648438 C 345.109375 119.960938 348.488281 120.636719 349.914062 120.855469 C 348.554688 120.949219 345.6875 120.992188 343.09375 119.71875 C 342.421875 119.390625 341.820312 118.996094 341.292969 118.550781 C 330.570312 128.382812 315.140625 131.167969 301.855469 125.675781 C 287.878906 119.894531 278.75 105.976562 278.933594 90.648438 C 284.855469 109.175781 299.378906 122.390625 316.03125 124.230469 C 327.640625 125.511719 336.925781 120.890625 341.128906 118.40625 " fill-opacity="1" fill-rule="nonzero"/></g><path stroke-linecap="butt" transform="matrix(0, 0.75, -0.75, 0, 167.873183, 65.882808)" fill="none" stroke-linejoin="miter" d="M 0.0000065543 4.997577 L 336.317742 4.997577 " stroke="#ffffff" stroke-width="10" stroke-opacity="1" stroke-miterlimit="4"/></svg>